# xmcd
#
# Track frame offsets:
#	150
#	13142
#	24423
#	36170
#	52593
#	69973
#	78697
#	92282
#	105079
#	118281
#	130412
#	141173
#	156958
#	174087
#	183007
#	196575
#	212509
#	226278
#	239282
#	252079
#	265356
#	272830
#	288435
#	300588
#	312478
#	324772
#
# Disc length: 4492 seconds
#
# Revision: 1
# Processed by: cddbd v1.5.2PL0 Copyright (c) Steve Scherf et al.
# Submitted via: audiograbber 1.83.01
#
DISCID=51118a1a
DTITLE=Al Jones - AL JONES - All My Friends Are Back Again - The Anthology [CD 
DTITLE=2)
DYEAR=1900
DGENRE=Folk
TTITLE0=Only a butcher's knife
TTITLE1=Flying
TTITLE2=All my friends are back again
TTITLE3=Eight foot whelk
TTITLE4=Get out of my car
TTITLE5=Blue suede shoes
TTITLE6=You're gonna need somebody on your bond
TTITLE7=I wanna see my baby
TTITLE8=Real wild child
TTITLE9=Phone call
TTITLE10=Liza
TTITLE11=Jeffrey don't you touch
TTITLE12=Get out of my car
TTITLE13=Tell the captain
TTITLE14=Bernard's exit
TTITLE15=High and dry
TTITLE16=Earthworks
TTITLE17=Ice age
TTITLE18=Time to myself
TTITLE19=To London with you
TTITLE20=Most chickens are mild and friendly or would like to be
TTITLE21=Caught in a storm
TTITLE22=Black cat
TTITLE23=The wild rover
TTITLE24=Diamond ring
TTITLE25=Rich man's blues
EXTD=
EXTT0=
EXTT1=
EXTT2=
EXTT3=
EXTT4=
EXTT5=
EXTT6=
EXTT7=
EXTT8=
EXTT9=
EXTT10=
EXTT11=
EXTT12=
EXTT13=
EXTT14=
EXTT15=
EXTT16=
EXTT17=
EXTT18=
EXTT19=
EXTT20=
EXTT21=
EXTT22=
EXTT23=
EXTT24=
EXTT25=
PLAYORDER=
